<svg xmlns="http://www.w3.org/2000/svg" width="1184" height="1026" viewBox="0 0 1184 1026" version="1.1">
	<path d="M 10 0.363 C 10 1.407, 590.892 1007.462, 591.631 1007.698 C 592.109 1007.851, 639.949 925.744, 697.942 825.238 C 755.935 724.732, 886.248 498.950, 987.527 323.500 C 1088.805 148.050, 1172.210 3.487, 1172.871 2.248 L 1174.073 -0.004 951.438 0.248 L 728.802 0.500 718.608 18 C 713 27.625, 682.139 80.621, 650.026 135.769 C 617.913 190.917, 591.271 235.671, 590.821 235.221 C 590.372 234.772, 559.680 181.776, 522.616 117.452 L 455.227 0.500 232.613 0.248 C 110.176 0.109, 10 0.161, 10 0.363" stroke="none" fill="black" fill-rule="evenodd"/>
</svg>